# xmcd
#
# Track frame offsets: 
#        150
#        12152
#        24661
#        36477
#        47451
#        57849
#        76830
#        89266
#        110680
#        122009
#        138146
#        152743
#        170540
#        181150
#        190055
#
# Disc length: 2692 seconds
#
# Revision: 0
# Processed by: cddbd v1.5.1PL0 Copyright (c) Steve Scherf et al.
# Submitted via: ExactAudioCopy v0.95a5
#
DISCID=b70a820f
DTITLE=Saga - My Tribute To Skrewdriver Vol2
DYEAR=2000
DGENRE=White Noise
TTITLE0=Voice Of Britain
TTITLE1=Strikeforce
TTITLE2=European Dream
TTITLE3=Red Falgs Are Burning
TTITLE4=Thunder In The Cities
TTITLE5=Free My Land
TTITLE6=The Strong Survive
TTITLE7=Suddenly
TTITLE8=Prisoner Of Peace
TTITLE9=Tomorrow Is Always To Late
TTITLE10=Wasted Life
TTITLE11=Hail The New Dawn
TTITLE12=Searching
TTITLE13=Land Of Fire
TTITLE14=The Road To Valhalla
EXTD=
EXTT0=
EXTT1=
EXTT2=
EXTT3=
EXTT4=
EXTT5=
EXTT6=
EXTT7=
EXTT8=
EXTT9=
EXTT10=
EXTT11=
EXTT12=
EXTT13=
EXTT14=
PLAYORDER=
